<?xml version="1.0" standalone="no"?>
<!DOCTYPE svg PUBLIC "-//W3C//DTD SVG 20010904//EN"
 "http://www.w3.org/TR/2001/REC-SVG-20010904/DTD/svg10.dtd">
<svg version="1.0" xmlns="http://www.w3.org/2000/svg"
 width="260.000000pt" height="260.000000pt" viewBox="0 0 260.000000 260.000000"
 preserveAspectRatio="xMidYMid meet">
<metadata>
Created by potrace 1.14, written by Peter Selinger 2001-2017
</metadata>
<g transform="translate(0.000000,260.000000) scale(0.100000,-0.100000)"
fill="#000000" stroke="none">
<path d="M1180 2590 c-41 -4 -93 -11 -115 -14 -22 -4 -48 -7 -57 -7 -10 0 -20
-5 -23 -10 -4 -5 -11 -7 -16 -3 -5 3 -16 0 -24 -6 -8 -6 -19 -9 -25 -5 -5 3
-10 2 -10 -4 0 -5 -15 -13 -32 -16 -46 -10 -150 -54 -170 -73 -10 -8 -18 -11
-18 -6 0 5 -4 4 -8 -1 -4 -6 -19 -16 -33 -22 -34 -15 -200 -141 -217 -165 -7
-10 -16 -17 -20 -15 -4 2 -19 -10 -34 -25 -15 -15 -25 -28 -22 -28 5 0 -44
-56 -93 -107 -12 -13 -20 -23 -18 -23 3 0 -10 -19 -28 -43 -17 -23 -41 -60
-52 -82 -11 -22 -23 -41 -27 -43 -5 -2 -8 -7 -8 -12 0 -4 -12 -34 -26 -66 -15
-33 -28 -70 -30 -84 -2 -14 -8 -26 -14 -28 -5 -2 -7 -8 -4 -13 3 -6 1 -15 -4
-22 -5 -7 -8 -20 -7 -29 2 -10 -1 -18 -7 -18 -6 0 -8 -11 -6 -25 3 -14 2 -25
-3 -25 -4 0 -8 -8 -8 -17 -1 -10 -6 -70 -13 -135 -9 -89 -9 -143 0 -230 6 -62
12 -125 12 -140 0 -15 4 -29 9 -33 6 -3 8 -12 4 -20 -3 -9 0 -22 7 -30 7 -8 9
-15 5 -15 -4 0 -3 -6 2 -12 6 -7 9 -21 8 -30 -2 -10 0 -18 3 -18 4 0 13 -18
19 -40 17 -51 65 -154 75 -158 4 -2 8 -9 8 -15 0 -16 70 -129 89 -144 9 -7 13
-13 9 -13 -9 0 8 -19 117 -130 45 -47 100 -98 121 -115 61 -48 148 -105 160
-105 7 0 15 -7 18 -16 3 -8 10 -13 15 -10 5 4 11 2 13 -4 4 -12 205 -90 212
-82 4 3 6 0 6 -5 0 -6 8 -10 18 -8 9 1 23 -2 29 -7 7 -6 20 -8 28 -4 8 3 15 2
15 -3 0 -14 167 -31 299 -31 112 0 244 13 281 27 8 3 28 7 43 9 16 2 36 8 46
14 10 5 21 6 25 3 3 -3 6 0 6 7 0 7 3 11 6 8 3 -3 33 5 66 19 33 13 63 21 67
18 3 -4 6 -28 6 -53 l0 -47 373 -3 372 -2 -2 832 -3 833 -557 1 -558 1 -1 -41
c0 -54 0 -632 0 -673 l1 -33 105 2 c59 1 106 -2 107 -8 4 -17 -110 -100 -169
-123 -32 -12 -65 -26 -73 -30 -8 -4 -25 -6 -37 -5 -13 2 -23 0 -23 -4 0 -4
-40 -7 -90 -7 -49 -1 -90 3 -90 7 0 5 -11 6 -25 4 -13 -3 -27 0 -30 5 -4 5
-13 9 -21 9 -18 0 -108 41 -112 52 -2 4 -9 8 -16 8 -18 0 -120 94 -159 148
-36 50 -86 173 -93 232 -8 64 -10 125 -5 135 3 6 6 26 7 45 1 19 3 35 4 35 1
0 3 7 5 16 7 37 59 145 78 162 10 9 16 17 12 17 -5 0 21 28 57 63 78 74 94 87
108 87 5 0 10 4 10 8 0 8 97 45 150 58 14 4 233 7 488 8 l462 1 1 35 c1 42 1
702 0 713 -1 9 -849 6 -951 -3z"/>
</g>
</svg>
